<svg version="1.1" xmlns="http://www.w3.org/2000/svg" xmlns:xlink="http://www.w3.org/1999/xlink" width="1264" height="1454"><defs/><g><g transform="translate(-70,-94) scale(1,1)"><rect fill="#C0C0C0" stroke="none" x="479" y="679" width="848" height="328" opacity="0.2"/></g><g transform="translate(-70,-94) scale(1,1)"><rect fill="#ffffff" stroke="none" x="472" y="672" width="848" height="328"/></g><g transform="translate(-70,-94) scale(1,1)"><path fill="none" stroke="#000000" d="M 472 672 L 1320 672 L 1320 1000 L 472 1000 L 472 672 Z Z" stroke-miterlimit="10"/></g><g transform="translate(-70,-94) scale(1,1)"><g><path fill="none" stroke="none"/><text fill="#000000" stroke="none" font-family="Arial" font-size="13px" font-style="normal" font-weight="bold" text-decoration="none" x="842.5" y="691.5">Cook register form</text></g></g><g transform="translate(-70,-94) scale(1,1)"><rect fill="#C0C0C0" stroke="none" x="815" y="111" width="511" height="439" opacity="0.2"/></g><g transform="translate(-70,-94) scale(1,1)"><rect fill="#ffffff" stroke="none" x="808" y="104" width="511" height="439"/></g><g transform="translate(-70,-94) scale(1,1)"><path fill="none" stroke="#000000" d="M 808 104 L 1319 104 L 1319 543 L 808 543 L 808 104 Z Z" stroke-miterlimit="10"/></g><g transform="translate(-70,-94) scale(1,1)"><g><path fill="none" stroke="none"/><text fill="#000000" stroke="none" font-family="Arial" font-size="13px" font-style="normal" font-weight="bold" text-decoration="none" x="1023.5" y="123.5">Event posting</text></g></g><g transform="translate(-70,-94) scale(1,1)"><rect fill="#C0C0C0" stroke="none" x="391" y="183" width="263" height="359" opacity="0.2"/></g><g transform="translate(-70,-94) scale(1,1)"><rect fill="#ffffff" stroke="none" x="384" y="176" width="263" height="359"/></g><g transform="translate(-70,-94) scale(1,1)"><path fill="none" stroke="#000000" d="M 384 176 L 647 176 L 647 535 L 384 535 L 384 176 Z Z" stroke-miterlimit="10"/></g><g transform="translate(-70,-94) scale(1,1)"><g><path fill="none" stroke="none"/><text fill="#000000" stroke="none" font-family="Arial" font-size="13px" font-style="normal" font-weight="bold" text-decoration="none" x="468.5" y="195.5">Event Managing</text></g></g><g transform="translate(-70,-94) scale(1,1)"><path fill="#ffffff" stroke="none" d="M 113.55681125710228 345.68 C 113.55681125710228 340.886167936 117.44265358204774 337 122.236083984375 337 C 127.02951438670226 337 130.91535671164772 340.886167936 130.91535671164772 345.68 C 130.91535671164772 350.473832064 127.02951438670226 354.36 122.236083984375 354.36 C 117.44265358204774 354.36 113.55681125710228 350.473832064 113.55681125710228 345.68 Z"/></g><g transform="translate(-70,-94) scale(1,1)"><path fill="none" stroke="#000000" d="M 113.55681125710228 345.68 C 113.55681125710228 340.886167936 117.44265358204774 337 122.236083984375 337 C 127.02951438670226 337 130.91535671164772 340.886167936 130.91535671164772 345.68 C 130.91535671164772 350.473832064 127.02951438670226 354.36 122.236083984375 354.36 C 117.44265358204774 354.36 113.55681125710228 350.473832064 113.55681125710228 345.68 Z" stroke-miterlimit="10"/></g><g transform="translate(-70,-94) scale(1,1)"><path fill="none" stroke="#000000" d="M 122.236083984375 354.36 L 122.236083984375 371.64" stroke-miterlimit="10"/></g><g transform="translate(-70,-94) scale(1,1)"><path fill="none" stroke="#000000" d="M 113.04626580255683 360.84 L 131.42590216619317 360.84" stroke-miterlimit="10"/></g><g transform="translate(-70,-94) scale(1,1)"><path fill="none" stroke="#000000" d="M 122.236083984375 371.64 L 109.47244762073865 389" stroke-miterlimit="10"/></g><g transform="translate(-70,-94) scale(1,1)"><path fill="none" stroke="#000000" d="M 122.236083984375 371.64 L 134.99972034801135 389" stroke-miterlimit="10"/></g><g transform="translate(-70,-94) scale(1,1)"><g><path fill="none" stroke="none"/><text fill="#000000" stroke="none" font-family="Arial" font-size="13px" font-style="normal" font-weight="bold" text-decoration="none" x="107.236083984375" y="409.5">Cook</text></g></g><g transform="translate(-70,-94) scale(1,1)"><path fill="#C0C0C0" stroke="none" d="M 455 440 C 455 430.6111584 485.4446336 423 523 423 C 560.5553664 423 591 430.6111584 591 440 C 591 449.3888416 560.5553664 457 523 457 C 485.4446336 457 455 449.3888416 455 440 Z" opacity="0.2"/></g><g transform="translate(-70,-94) scale(1,1)"><path fill="#ffffff" stroke="none" d="M 448 433 C 448 423.6111584 478.4446336 416 516 416 C 553.5553664 416 584 423.6111584 584 433 C 584 442.3888416 553.5553664 450 516 450 C 478.4446336 450 448 442.3888416 448 433 Z"/></g><g transform="translate(-70,-94) scale(1,1)"><path fill="none" stroke="#000000" d="M 448 433 C 448 423.6111584 478.4446336 416 516 416 C 553.5553664 416 584 423.6111584 584 433 C 584 442.3888416 553.5553664 450 516 450 C 478.4446336 450 448 442.3888416 448 433 Z" stroke-miterlimit="10"/></g><g transform="translate(-70,-94) scale(1,1)"><g><path fill="none" stroke="none"/><text fill="#000000" stroke="none" font-family="Arial" font-size="13px" font-style="normal" font-weight="bold" text-decoration="none" x="474.5" y="440">Post an Event</text></g></g><g transform="translate(-70,-94) scale(1,1)"><path fill="#C0C0C0" stroke="none" d="M 439 336 C 439 326.6111584 476.6080768 319 523 319 C 569.3919232 319 607 326.6111584 607 336 C 607 345.3888416 569.3919232 353 523 353 C 476.6080768 353 439 345.3888416 439 336 Z" opacity="0.2"/></g><g transform="translate(-70,-94) scale(1,1)"><path fill="#ffffff" stroke="none" d="M 432 329 C 432 319.6111584 469.6080768 312 516 312 C 562.3919232 312 600 319.6111584 600 329 C 600 338.3888416 562.3919232 346 516 346 C 469.6080768 346 432 338.3888416 432 329 Z"/></g><g transform="translate(-70,-94) scale(1,1)"><path fill="none" stroke="#000000" d="M 432 329 C 432 319.6111584 469.6080768 312 516 312 C 562.3919232 312 600 319.6111584 600 329 C 600 338.3888416 562.3919232 346 516 346 C 469.6080768 346 432 338.3888416 432 329 Z" stroke-miterlimit="10"/></g><g transform="translate(-70,-94) scale(1,1)"><g><path fill="none" stroke="none"/><text fill="#000000" stroke="none" font-family="Arial" font-size="13px" font-style="normal" font-weight="bold" text-decoration="none" x="465.5" y="336">Review his Event</text></g></g><g transform="translate(-70,-94) scale(1,1)"><path fill="#C0C0C0" stroke="none" d="M 431 384 C 431 374.6111584 468.6080768 367 515 367 C 561.3919232 367 599 374.6111584 599 384 C 599 393.3888416 561.3919232 401 515 401 C 468.6080768 401 431 393.3888416 431 384 Z" opacity="0.2"/></g><g transform="translate(-70,-94) scale(1,1)"><path fill="#ffffff" stroke="none" d="M 424 377 C 424 367.6111584 461.6080768 360 508 360 C 554.3919232 360 592 367.6111584 592 377 C 592 386.3888416 554.3919232 394 508 394 C 461.6080768 394 424 386.3888416 424 377 Z"/></g><g transform="translate(-70,-94) scale(1,1)"><path fill="none" stroke="#000000" d="M 424 377 C 424 367.6111584 461.6080768 360 508 360 C 554.3919232 360 592 367.6111584 592 377 C 592 386.3888416 554.3919232 394 508 394 C 461.6080768 394 424 386.3888416 424 377 Z" stroke-miterlimit="10"/></g><g transform="translate(-70,-94) scale(1,1)"><g><path fill="none" stroke="none"/><text fill="#000000" stroke="none" font-family="Arial" font-size="13px" font-style="normal" font-weight="bold" text-decoration="none" x="458" y="384">Update his Event</text></g></g><g transform="translate(-70,-94) scale(1,1)"><path fill="#C0C0C0" stroke="none" d="M 431 248 C 431 238.6111584 476.2192352 231 532 231 C 587.7807648 231 633 238.6111584 633 248 C 633 257.3888416 587.7807648 265 532 265 C 476.2192352 265 431 257.3888416 431 248 Z" opacity="0.2"/></g><g transform="translate(-70,-94) scale(1,1)"><path fill="#ffffff" stroke="none" d="M 424 241 C 424 231.6111584 469.2192352 224 525 224 C 580.7807648 224 626 231.6111584 626 241 C 626 250.3888416 580.7807648 258 525 258 C 469.2192352 258 424 250.3888416 424 241 Z"/></g><g transform="translate(-70,-94) scale(1,1)"><path fill="none" stroke="#000000" d="M 424 241 C 424 231.6111584 469.2192352 224 525 224 C 580.7807648 224 626 231.6111584 626 241 C 626 250.3888416 580.7807648 258 525 258 C 469.2192352 258 424 250.3888416 424 241 Z" stroke-miterlimit="10"/></g><g transform="translate(-70,-94) scale(1,1)"><g><path fill="none" stroke="none"/><text fill="#000000" stroke="none" font-family="Arial" font-size="13px" font-style="normal" font-weight="bold" text-decoration="none" x="465" y="248">Accept a reservation</text></g></g><g transform="translate(-70,-94) scale(1,1)"><path fill="#C0C0C0" stroke="none" d="M 439 488 C 439 478.6111584 481.9806592 471 535 471 C 588.0193408 471 631 478.6111584 631 488 C 631 497.3888416 588.0193408 505 535 505 C 481.9806592 505 439 497.3888416 439 488 Z" opacity="0.2"/></g><g transform="translate(-70,-94) scale(1,1)"><path fill="#ffffff" stroke="none" d="M 432 481 C 432 471.6111584 474.9806592 464 528 464 C 581.0193408 464 624 471.6111584 624 481 C 624 490.3888416 581.0193408 498 528 498 C 474.9806592 498 432 490.3888416 432 481 Z"/></g><g transform="translate(-70,-94) scale(1,1)"><path fill="none" stroke="#000000" d="M 432 481 C 432 471.6111584 474.9806592 464 528 464 C 581.0193408 464 624 471.6111584 624 481 C 624 490.3888416 581.0193408 498 528 498 C 474.9806592 498 432 490.3888416 432 481 Z" stroke-miterlimit="10"/></g><g transform="translate(-70,-94) scale(1,1)"><g><path fill="none" stroke="none"/><text fill="#000000" stroke="none" font-family="Arial" font-size="13px" font-style="normal" font-weight="bold" text-decoration="none" x="472" y="488">Terminate an event</text></g></g><g transform="translate(-70,-94) scale(1,1)"><path fill="#C0C0C0" stroke="none" d="M 223 744 C 223 734.6111584 244.7141872 727 271.5 727 C 298.28581280000003 727 320 734.6111584 320 744 C 320 753.3888416 298.28581280000003 761 271.5 761 C 244.7141872 761 223 753.3888416 223 744 Z" opacity="0.2"/></g><g transform="translate(-70,-94) scale(1,1)"><path fill="#ffffff" stroke="none" d="M 216 737 C 216 727.6111584 237.7141872 720 264.5 720 C 291.28581280000003 720 313 727.6111584 313 737 C 313 746.3888416 291.28581280000003 754 264.5 754 C 237.7141872 754 216 746.3888416 216 737 Z"/></g><g transform="translate(-70,-94) scale(1,1)"><path fill="none" stroke="#000000" d="M 216 737 C 216 727.6111584 237.7141872 720 264.5 720 C 291.28581280000003 720 313 727.6111584 313 737 C 313 746.3888416 291.28581280000003 754 264.5 754 C 237.7141872 754 216 746.3888416 216 737 Z" stroke-miterlimit="10"/></g><g transform="translate(-70,-94) scale(1,1)"><g><path fill="none" stroke="none"/><text fill="#000000" stroke="none" font-family="Arial" font-size="13px" font-style="normal" font-weight="bold" text-decoration="none" x="240.5" y="744">Register</text></g></g><g transform="translate(-70,-94) scale(1,1)"><path fill="#C0C0C0" stroke="none" d="M 295 648 C 295 638.6111584 337.0852288 631 389 631 C 440.9147712 631 483 638.6111584 483 648 C 483 657.3888416 440.9147712 665 389 665 C 337.0852288 665 295 657.3888416 295 648 Z" opacity="0.2"/></g><g transform="translate(-70,-94) scale(1,1)"><path fill="#ffffff" stroke="none" d="M 288 641 C 288 631.6111584 330.0852288 624 382 624 C 433.9147712 624 476 631.6111584 476 641 C 476 650.3888416 433.9147712 658 382 658 C 330.0852288 658 288 650.3888416 288 641 Z"/></g><g transform="translate(-70,-94) scale(1,1)"><path fill="none" stroke="#000000" d="M 288 641 C 288 631.6111584 330.0852288 624 382 624 C 433.9147712 624 476 631.6111584 476 641 C 476 650.3888416 433.9147712 658 382 658 C 330.0852288 658 288 650.3888416 288 641 Z" stroke-miterlimit="10"/></g><g transform="translate(-70,-94) scale(1,1)"><g><path fill="none" stroke="none"/><text fill="#000000" stroke="none" font-family="Arial" font-size="13px" font-style="normal" font-weight="bold" text-decoration="none" x="328" y="648">Upload certificates</text></g></g><g transform="translate(-70,-94) scale(1,1)"><path fill="#C0C0C0" stroke="none" d="M 239 576 C 239 566.6111584 260.71418719999997 559 287.5 559 C 314.28581280000003 559 336 566.6111584 336 576 C 336 585.3888416 314.28581280000003 593 287.5 593 C 260.71418719999997 593 239 585.3888416 239 576 Z" opacity="0.2"/></g><g transform="translate(-70,-94) scale(1,1)"><path fill="#ffffff" stroke="none" d="M 232 569 C 232 559.6111584 253.7141872 552 280.5 552 C 307.28581280000003 552 329 559.6111584 329 569 C 329 578.3888416 307.28581280000003 586 280.5 586 C 253.7141872 586 232 578.3888416 232 569 Z"/></g><g transform="translate(-70,-94) scale(1,1)"><path fill="none" stroke="#000000" d="M 232 569 C 232 559.6111584 253.7141872 552 280.5 552 C 307.28581280000003 552 329 559.6111584 329 569 C 329 578.3888416 307.28581280000003 586 280.5 586 C 253.7141872 586 232 578.3888416 232 569 Z" stroke-miterlimit="10"/></g><g transform="translate(-70,-94) scale(1,1)"><g><path fill="none" stroke="none"/><text fill="#000000" stroke="none" font-family="Arial" font-size="13px" font-style="normal" font-weight="bold" text-decoration="none" x="256.5" y="576">Edit info</text></g></g><g transform="translate(-70,-94) scale(1,1)"><path fill="#C0C0C0" stroke="none" d="M 951 360 C 951 350.6111584 979.6537728 343 1015 343 C 1050.3462272 343 1079 350.6111584 1079 360 C 1079 369.3888416 1050.3462272 377 1015 377 C 979.6537728 377 951 369.3888416 951 360 Z" opacity="0.2"/></g><g transform="translate(-70,-94) scale(1,1)"><path fill="#ffffff" stroke="none" d="M 944 353 C 944 343.6111584 972.6537728 336 1008 336 C 1043.3462272 336 1072 343.6111584 1072 353 C 1072 362.3888416 1043.3462272 370 1008 370 C 972.6537728 370 944 362.3888416 944 353 Z"/></g><g transform="translate(-70,-94) scale(1,1)"><path fill="none" stroke="#000000" d="M 944 353 C 944 343.6111584 972.6537728 336 1008 336 C 1043.3462272 336 1072 343.6111584 1072 353 C 1072 362.3888416 1043.3462272 370 1008 370 C 972.6537728 370 944 362.3888416 944 353 Z" stroke-miterlimit="10"/></g><g transform="translate(-70,-94) scale(1,1)"><g><path fill="none" stroke="none"/><text fill="#000000" stroke="none" font-family="Arial" font-size="13px" font-style="normal" font-weight="bold" text-decoration="none" x="971.5" y="360">Choose time</text></g></g><g transform="translate(-70,-94) scale(1,1)"><path fill="#C0C0C0" stroke="none" d="M 951 312 C 951 302.6111584 981.4446336 295 1019 295 C 1056.5553664 295 1087 302.6111584 1087 312 C 1087 321.3888416 1056.5553664 329 1019 329 C 981.4446336 329 951 321.3888416 951 312 Z" opacity="0.2"/></g><g transform="translate(-70,-94) scale(1,1)"><path fill="#ffffff" stroke="none" d="M 944 305 C 944 295.6111584 974.4446336 288 1012 288 C 1049.5553664 288 1080 295.6111584 1080 305 C 1080 314.3888416 1049.5553664 322 1012 322 C 974.4446336 322 944 314.3888416 944 305 Z"/></g><g transform="translate(-70,-94) scale(1,1)"><path fill="none" stroke="#000000" d="M 944 305 C 944 295.6111584 974.4446336 288 1012 288 C 1049.5553664 288 1080 295.6111584 1080 305 C 1080 314.3888416 1049.5553664 322 1012 322 C 974.4446336 322 944 314.3888416 944 305 Z" stroke-miterlimit="10"/></g><g transform="translate(-70,-94) scale(1,1)"><g><path fill="none" stroke="none"/><text fill="#000000" stroke="none" font-family="Arial" font-size="13px" font-style="normal" font-weight="bold" text-decoration="none" x="972.5" y="312">Choose place</text></g></g><g transform="translate(-70,-94) scale(1,1)"><path fill="#C0C0C0" stroke="none" d="M 903 192 C 903 182.6111584 970.15728 175 1053 175 C 1135.84272 175 1203 182.6111584 1203 192 C 1203 201.3888416 1135.84272 209 1053 209 C 970.15728 209 903 201.3888416 903 192 Z" opacity="0.2"/></g><g transform="translate(-70,-94) scale(1,1)"><path fill="#ffffff" stroke="none" d="M 896 185 C 896 175.6111584 963.15728 168 1046 168 C 1128.84272 168 1196 175.6111584 1196 185 C 1196 194.3888416 1128.84272 202 1046 202 C 963.15728 202 896 194.3888416 896 185 Z"/></g><g transform="translate(-70,-94) scale(1,1)"><path fill="none" stroke="#000000" d="M 896 185 C 896 175.6111584 963.15728 168 1046 168 C 1128.84272 168 1196 175.6111584 1196 185 C 1196 194.3888416 1128.84272 202 1046 202 C 963.15728 202 896 194.3888416 896 185 Z" stroke-miterlimit="10"/></g><g transform="translate(-70,-94) scale(1,1)"><g><path fill="none" stroke="none"/><text fill="#000000" stroke="none" font-family="Arial" font-size="13px" font-style="normal" font-weight="bold" text-decoration="none" x="957.5" y="192">Choose number of participants</text></g></g><g transform="translate(-70,-94) scale(1,1)"><path fill="#C0C0C0" stroke="none" d="M 951 408 C 951 398.6111584 981.220776 391 1018.5 391 C 1055.7792239999999 391 1086 398.6111584 1086 408 C 1086 417.3888416 1055.7792239999999 425 1018.5 425 C 981.220776 425 951 417.3888416 951 408 Z" opacity="0.2"/></g><g transform="translate(-70,-94) scale(1,1)"><path fill="#ffffff" stroke="none" d="M 944 401 C 944 391.6111584 974.220776 384 1011.5 384 C 1048.7792239999999 384 1079 391.6111584 1079 401 C 1079 410.3888416 1048.7792239999999 418 1011.5 418 C 974.220776 418 944 410.3888416 944 401 Z"/></g><g transform="translate(-70,-94) scale(1,1)"><path fill="none" stroke="#000000" d="M 944 401 C 944 391.6111584 974.220776 384 1011.5 384 C 1048.7792239999999 384 1079 391.6111584 1079 401 C 1079 410.3888416 1048.7792239999999 418 1011.5 418 C 974.220776 418 944 410.3888416 944 401 Z" stroke-miterlimit="10"/></g><g transform="translate(-70,-94) scale(1,1)"><g><path fill="none" stroke="none"/><text fill="#000000" stroke="none" font-family="Arial" font-size="13px" font-style="normal" font-weight="bold" text-decoration="none" x="973.5" y="408">Upload menu</text></g></g><g transform="translate(-70,-94) scale(1,1)"><path fill="#C0C0C0" stroke="none" d="M 943 472 C 943 462.6111584 978.5933583999999 455 1022.5 455 C 1066.4066416 455 1102 462.6111584 1102 472 C 1102 481.3888416 1066.4066416 489 1022.5 489 C 978.5933583999999 489 943 481.3888416 943 472 Z" opacity="0.2"/></g><g transform="translate(-70,-94) scale(1,1)"><path fill="#ffffff" stroke="none" d="M 936 465 C 936 455.6111584 971.5933583999999 448 1015.5 448 C 1059.4066416 448 1095 455.6111584 1095 465 C 1095 474.3888416 1059.4066416 482 1015.5 482 C 971.5933583999999 482 936 474.3888416 936 465 Z"/></g><g transform="translate(-70,-94) scale(1,1)"><path fill="none" stroke="#000000" d="M 936 465 C 936 455.6111584 971.5933583999999 448 1015.5 448 C 1059.4066416 448 1095 455.6111584 1095 465 C 1095 474.3888416 1059.4066416 482 1015.5 482 C 971.5933583999999 482 936 474.3888416 936 465 Z" stroke-miterlimit="10"/></g><g transform="translate(-70,-94) scale(1,1)"><g><path fill="none" stroke="none"/><text fill="#000000" stroke="none" font-family="Arial" font-size="13px" font-style="normal" font-weight="bold" text-decoration="none" x="969.5" y="472">Upload Pictures</text></g></g><g transform="translate(-70,-94) scale(1,1)"><path fill="#C0C0C0" stroke="none" d="M 983 248 C 983 238.6111584 1023.9659408 231 1074.5 231 C 1125.0340592 231 1166 238.6111584 1166 248 C 1166 257.3888416 1125.0340592 265 1074.5 265 C 1023.9659408 265 983 257.3888416 983 248 Z" opacity="0.2"/></g><g transform="translate(-70,-94) scale(1,1)"><path fill="#ffffff" stroke="none" d="M 976 241 C 976 231.6111584 1016.9659408 224 1067.5 224 C 1118.0340592 224 1159 231.6111584 1159 241 C 1159 250.3888416 1118.0340592 258 1067.5 258 C 1016.9659408 258 976 250.3888416 976 241 Z"/></g><g transform="translate(-70,-94) scale(1,1)"><path fill="none" stroke="#000000" d="M 976 241 C 976 231.6111584 1016.9659408 224 1067.5 224 C 1118.0340592 224 1159 231.6111584 1159 241 C 1159 250.3888416 1118.0340592 258 1067.5 258 C 1016.9659408 258 976 250.3888416 976 241 Z" stroke-miterlimit="10"/></g><g transform="translate(-70,-94) scale(1,1)"><g><path fill="none" stroke="none"/><text fill="#000000" stroke="none" font-family="Arial" font-size="13px" font-style="normal" font-weight="bold" text-decoration="none" x="1015.5" y="248">Write descriptions</text></g></g><g transform="translate(-70,-94) scale(1,1)"><path fill="#C0C0C0" stroke="none" d="M 959 528 C 959 518.6111584 988.7730607999999 511 1025.5 511 C 1062.2269392 511 1092 518.6111584 1092 528 C 1092 537.3888416 1062.2269392 545 1025.5 545 C 988.7730607999999 545 959 537.3888416 959 528 Z" opacity="0.2"/></g><g transform="translate(-70,-94) scale(1,1)"><path fill="#ffffff" stroke="none" d="M 952 521 C 952 511.6111584 981.7730607999999 504 1018.5 504 C 1055.2269392 504 1085 511.6111584 1085 521 C 1085 530.3888416 1055.2269392 538 1018.5 538 C 981.7730607999999 538 952 530.3888416 952 521 Z"/></g><g transform="translate(-70,-94) scale(1,1)"><path fill="none" stroke="#000000" d="M 952 521 C 952 511.6111584 981.7730607999999 504 1018.5 504 C 1055.2269392 504 1085 511.6111584 1085 521 C 1085 530.3888416 1055.2269392 538 1018.5 538 C 981.7730607999999 538 952 530.3888416 952 521 Z" stroke-miterlimit="10"/></g><g transform="translate(-70,-94) scale(1,1)"><g><path fill="none" stroke="none"/><text fill="#000000" stroke="none" font-family="Arial" font-size="13px" font-style="normal" font-weight="bold" text-decoration="none" x="980.5" y="528">Choose price</text></g></g><g transform="translate(-70,-94) scale(1,1)"><path fill="none" stroke="#000000" d="M 149 366 L 471 259" stroke-miterlimit="10"/></g><g transform="translate(-70,-94) scale(1,1)"><path fill="none" stroke="#000000" d="M 149 372 L 431 339" stroke-miterlimit="10"/></g><g transform="translate(-70,-94) scale(1,1)"><path fill="none" stroke="#000000" d="M 149 375 L 423 377" stroke-miterlimit="10"/></g><g transform="translate(-70,-94) scale(1,1)"><path fill="none" stroke="#000000" d="M 149 379 L 447 423" stroke-miterlimit="10"/></g><g transform="translate(-70,-94) scale(1,1)"><path fill="none" stroke="#000000" d="M 149 382 L 459 463" stroke-miterlimit="10"/></g><g transform="translate(-70,-94) scale(1,1)"><path fill="none" stroke="#000000" d="M 138 416 L 257 719" stroke-miterlimit="10"/></g><g transform="translate(-70,-94) scale(1,1)"><path fill="none" stroke="#000000" d="M 149 409 L 265 551" stroke-miterlimit="10"/></g><g transform="translate(-70,-94) scale(1,1)"><path fill="none" stroke="#000000" d="M 554 415 L 1008 203" stroke-miterlimit="10" stroke-dasharray="3"/></g><g transform="translate(-70,-94) scale(1,1)"><path fill="none" stroke="#000000" d="M 1000.5728556488635 211.11403270805474 L 1008 203 L 997.0107283138251 203.48570341509503" stroke-miterlimit="10"/></g><g transform="translate(-70,-94) scale(1,1)"><g><path fill="none" stroke="none"/><text fill="#000000" stroke="none" font-family="Arial" font-size="13px" font-style="normal" font-weight="normal" text-decoration="none" x="741" y="288">«include»</text></g></g><g transform="translate(-70,-94) scale(1,1)"><path fill="none" stroke="#000000" d="M 568 415 L 1015 259" stroke-miterlimit="10" stroke-dasharray="3"/></g><g transform="translate(-70,-94) scale(1,1)"><path fill="none" stroke="#000000" d="M 1006.7919173493846 266.3230717052796 L 1015 259 L 1004.0178154352917 258.3742027591287" stroke-miterlimit="10"/></g><g transform="translate(-70,-94) scale(1,1)"><g><path fill="none" stroke="none"/><text fill="#000000" stroke="none" font-family="Arial" font-size="13px" font-style="normal" font-weight="normal" text-decoration="none" x="754" y="315">«include»</text></g></g><g transform="translate(-70,-94) scale(1,1)"><path fill="none" stroke="#000000" d="M 585 415 L 943 323" stroke-miterlimit="10" stroke-dasharray="3"/></g><g transform="translate(-70,-94) scale(1,1)"><path fill="none" stroke="#000000" d="M 934.2048746603359 329.60649455154544 L 943 323 L 932.1094101336681 321.4524043282077" stroke-miterlimit="10"/></g><g transform="translate(-70,-94) scale(1,1)"><g><path fill="none" stroke="none"/><text fill="#000000" stroke="none" font-family="Arial" font-size="13px" font-style="normal" font-weight="normal" text-decoration="none" x="729" y="346">«include»</text></g></g><g transform="translate(-70,-94) scale(1,1)"><path fill="none" stroke="#000000" d="M 585 422 L 943 364" stroke-miterlimit="10" stroke-dasharray="3"/></g><g transform="translate(-70,-94) scale(1,1)"><path fill="none" stroke="#000000" d="M 933.6413397970949 369.78061235567316 L 943 364 L 932.2949177115979 361.46993810381235" stroke-miterlimit="10"/></g><g transform="translate(-70,-94) scale(1,1)"><g><path fill="none" stroke="none"/><text fill="#000000" stroke="none" font-family="Arial" font-size="13px" font-style="normal" font-weight="normal" text-decoration="none" x="732" y="370">«include»</text></g></g><g transform="translate(-70,-94) scale(1,1)"><path fill="none" stroke="#000000" d="M 585 429 L 943 405" stroke-miterlimit="10" stroke-dasharray="3"/></g><g transform="translate(-70,-94) scale(1,1)"><path fill="none" stroke="#000000" d="M 933.1416555074193 409.8798610498254 L 943 405 L 932.5785149184435 401.4796805976028" stroke-miterlimit="10"/></g><g transform="translate(-70,-94) scale(1,1)"><g><path fill="none" stroke="none"/><text fill="#000000" stroke="none" font-family="Arial" font-size="13px" font-style="normal" font-weight="normal" text-decoration="none" x="734" y="394">«include»</text></g></g><g transform="translate(-70,-94) scale(1,1)"><path fill="none" stroke="#000000" d="M 585 437 L 935 460" stroke-miterlimit="10" stroke-dasharray="3"/></g><g transform="translate(-70,-94) scale(1,1)"><path fill="none" stroke="#000000" d="M 924.5831673151652 463.53406236732695 L 935 460 L 925.1352275049945 455.1331464351407" stroke-miterlimit="10"/></g><g transform="translate(-70,-94) scale(1,1)"><g><path fill="none" stroke="none"/><text fill="#000000" stroke="none" font-family="Arial" font-size="13px" font-style="normal" font-weight="normal" text-decoration="none" x="735" y="425">«include»</text></g></g><g transform="translate(-70,-94) scale(1,1)"><path fill="none" stroke="#000000" d="M 585 445 L 951 509" stroke-miterlimit="10" stroke-dasharray="3"/></g><g transform="translate(-70,-94) scale(1,1)"><path fill="none" stroke="#000000" d="M 940.2641350899647 511.39608109910193 L 951 509 L 941.7143119267635 503.1028823136593" stroke-miterlimit="10"/></g><g transform="translate(-70,-94) scale(1,1)"><g><path fill="none" stroke="none"/><text fill="#000000" stroke="none" font-family="Arial" font-size="13px" font-style="normal" font-weight="normal" text-decoration="none" x="746" y="454">«include»</text></g></g><g transform="translate(-70,-94) scale(1,1)"><path fill="#C0C0C0" stroke="none" d="M 87 1144 C 87 1134.6111584 108.7141872 1127 135.5 1127 C 162.2858128 1127 184 1134.6111584 184 1144 C 184 1153.3888416 162.2858128 1161 135.5 1161 C 108.7141872 1161 87 1153.3888416 87 1144 Z" opacity="0.2"/></g><g transform="translate(-70,-94) scale(1,1)"><path fill="#ffffff" stroke="none" d="M 80 1137 C 80 1127.6111584 101.7141872 1120 128.5 1120 C 155.2858128 1120 177 1127.6111584 177 1137 C 177 1146.3888416 155.2858128 1154 128.5 1154 C 101.7141872 1154 80 1146.3888416 80 1137 Z"/></g><g transform="translate(-70,-94) scale(1,1)"><path fill="none" stroke="#000000" d="M 80 1137 C 80 1127.6111584 101.7141872 1120 128.5 1120 C 155.2858128 1120 177 1127.6111584 177 1137 C 177 1146.3888416 155.2858128 1154 128.5 1154 C 101.7141872 1154 80 1146.3888416 80 1137 Z" stroke-miterlimit="10"/></g><g transform="translate(-70,-94) scale(1,1)"><g><path fill="none" stroke="none"/><text fill="#000000" stroke="none" font-family="Arial" font-size="13px" font-style="normal" font-weight="bold" text-decoration="none" x="113" y="1144">Login</text></g></g><g transform="translate(-70,-94) scale(1,1)"><path fill="none" stroke="#000000" d="M 122 416 L 128 1119" stroke-miterlimit="10"/></g><g transform="translate(-70,-94) scale(1,1)"><path fill="none" stroke="#000000" d="M 360 659 L 286 719" stroke-miterlimit="10" stroke-dasharray="3"/></g><g transform="translate(-70,-94) scale(1,1)"><path fill="none" stroke="#000000" d="M 291.242753591279 709.3297603555479 L 286 719 L 296.5450786447745 715.8692945881925" stroke-miterlimit="10"/></g><g transform="translate(-70,-94) scale(1,1)"><g><path fill="none" stroke="none"/><text fill="#000000" stroke="none" font-family="Arial" font-size="13px" font-style="normal" font-weight="normal" text-decoration="none" x="315" y="719">«extend»</text></g></g><g transform="translate(-70,-94) scale(1,1)"><path fill="none" stroke="#000000" d="M 357 623 L 306 587" stroke-miterlimit="10" stroke-dasharray="3"/></g><g transform="translate(-70,-94) scale(1,1)"><path fill="none" stroke="#000000" d="M 316.7301369233753 589.4216031065426 L 306 587 L 311.8750206036001 596.2996845595576" stroke-miterlimit="10"/></g><g transform="translate(-70,-94) scale(1,1)"><g><path fill="none" stroke="none"/><text fill="#000000" stroke="none" font-family="Arial" font-size="13px" font-style="normal" font-weight="normal" text-decoration="none" x="287" y="636">«extend»</text></g></g><g transform="translate(-70,-94) scale(1,1)"><path fill="#C0C0C0" stroke="none" d="M 463 288 C 463 278.6111584 497.697928 271 540.5 271 C 583.302072 271 618 278.6111584 618 288 C 618 297.3888416 583.302072 305 540.5 305 C 497.697928 305 463 297.3888416 463 288 Z" opacity="0.2"/></g><g transform="translate(-70,-94) scale(1,1)"><path fill="#ffffff" stroke="none" d="M 456 281 C 456 271.6111584 490.697928 264 533.5 264 C 576.302072 264 611 271.6111584 611 281 C 611 290.3888416 576.302072 298 533.5 298 C 490.697928 298 456 290.3888416 456 281 Z"/></g><g transform="translate(-70,-94) scale(1,1)"><path fill="none" stroke="#000000" d="M 456 281 C 456 271.6111584 490.697928 264 533.5 264 C 576.302072 264 611 271.6111584 611 281 C 611 290.3888416 576.302072 298 533.5 298 C 490.697928 298 456 290.3888416 456 281 Z" stroke-miterlimit="10"/></g><g transform="translate(-70,-94) scale(1,1)"><g><path fill="none" stroke="none"/><text fill="#000000" stroke="none" font-family="Arial" font-size="13px" font-style="normal" font-weight="bold" text-decoration="none" x="488" y="288">Delete an event</text></g></g><g transform="translate(-70,-94) scale(1,1)"><path fill="none" stroke="#000000" d="M 149 369 L 455 299" stroke-miterlimit="10"/></g><g transform="translate(-70,-94) scale(1,1)"><path fill="#C0C0C0" stroke="none" d="M 1143 360 C 1143 350.6111584 1164.7141872 343 1191.5 343 C 1218.2858128 343 1240 350.6111584 1240 360 C 1240 369.3888416 1218.2858128 377 1191.5 377 C 1164.7141872 377 1143 369.3888416 1143 360 Z" opacity="0.2"/></g><g transform="translate(-70,-94) scale(1,1)"><path fill="#ffffff" stroke="none" d="M 1136 353 C 1136 343.6111584 1157.7141872 336 1184.5 336 C 1211.2858128 336 1233 343.6111584 1233 353 C 1233 362.3888416 1211.2858128 370 1184.5 370 C 1157.7141872 370 1136 362.3888416 1136 353 Z"/></g><g transform="translate(-70,-94) scale(1,1)"><path fill="none" stroke="#000000" d="M 1136 353 C 1136 343.6111584 1157.7141872 336 1184.5 336 C 1211.2858128 336 1233 343.6111584 1233 353 C 1233 362.3888416 1211.2858128 370 1184.5 370 C 1157.7141872 370 1136 362.3888416 1136 353 Z" stroke-miterlimit="10"/></g><g transform="translate(-70,-94) scale(1,1)"><g><path fill="none" stroke="none"/><text fill="#000000" stroke="none" font-family="Arial" font-size="13px" font-style="normal" font-weight="bold" text-decoration="none" x="1163" y="360">Alcohol</text></g></g><g transform="translate(-70,-94) scale(1,1)"><path fill="none" stroke="#000000" d="M 1135 367 L 1076 383" stroke-miterlimit="10" stroke-dasharray="3"/></g><g transform="translate(-70,-94) scale(1,1)"><path fill="none" stroke="#000000" d="M 1084.7066377575356 376.27731757710836 L 1076 383 L 1086.9101769286785 384.402868270698" stroke-miterlimit="10"/></g><g transform="translate(-70,-94) scale(1,1)"><g><path fill="none" stroke="none"/><text fill="#000000" stroke="none" font-family="Arial" font-size="13px" font-style="normal" font-weight="normal" text-decoration="none" x="1086" y="410">«extend»</text></g></g><g transform="translate(-70,-94) scale(1,1)"><path fill="#C0C0C0" stroke="none" d="M 1175 728 C 1175 718.6111584 1204.7730608 711 1241.5 711 C 1278.2269392 711 1308 718.6111584 1308 728 C 1308 737.3888416 1278.2269392 745 1241.5 745 C 1204.7730608 745 1175 737.3888416 1175 728 Z" opacity="0.2"/></g><g transform="translate(-70,-94) scale(1,1)"><path fill="#ffffff" stroke="none" d="M 1168 721 C 1168 711.6111584 1197.7730608 704 1234.5 704 C 1271.2269392 704 1301 711.6111584 1301 721 C 1301 730.3888416 1271.2269392 738 1234.5 738 C 1197.7730608 738 1168 730.3888416 1168 721 Z"/></g><g transform="translate(-70,-94) scale(1,1)"><path fill="none" stroke="#000000" d="M 1168 721 C 1168 711.6111584 1197.7730608 704 1234.5 704 C 1271.2269392 704 1301 711.6111584 1301 721 C 1301 730.3888416 1271.2269392 738 1234.5 738 C 1197.7730608 738 1168 730.3888416 1168 721 Z" stroke-miterlimit="10"/></g><g transform="translate(-70,-94) scale(1,1)"><g><path fill="none" stroke="none"/><text fill="#000000" stroke="none" font-family="Arial" font-size="13px" font-style="normal" font-weight="bold" text-decoration="none" x="1196.5" y="728">Select region</text></g></g><g transform="translate(-70,-94) scale(1,1)"><path fill="#C0C0C0" stroke="none" d="M 975 984 C 975 974.6111584 1016.8613712 967 1068.5 967 C 1120.1386288 967 1162 974.6111584 1162 984 C 1162 993.3888416 1120.1386288 1001 1068.5 1001 C 1016.8613712 1001 975 993.3888416 975 984 Z" opacity="0.2"/></g><g transform="translate(-70,-94) scale(1,1)"><path fill="#ffffff" stroke="none" d="M 968 977 C 968 967.6111584 1009.8613712 960 1061.5 960 C 1113.1386288 960 1155 967.6111584 1155 977 C 1155 986.3888416 1113.1386288 994 1061.5 994 C 1009.8613712 994 968 986.3888416 968 977 Z"/></g><g transform="translate(-70,-94) scale(1,1)"><path fill="none" stroke="#000000" d="M 968 977 C 968 967.6111584 1009.8613712 960 1061.5 960 C 1113.1386288 960 1155 967.6111584 1155 977 C 1155 986.3888416 1113.1386288 994 1061.5 994 C 1009.8613712 994 968 986.3888416 968 977 Z" stroke-miterlimit="10"/></g><g transform="translate(-70,-94) scale(1,1)"><g><path fill="none" stroke="none"/><text fill="#000000" stroke="none" font-family="Arial" font-size="13px" font-style="normal" font-weight="bold" text-decoration="none" x="1006.5" y="984">Upload videos pics</text></g></g><g transform="translate(-70,-94) scale(1,1)"><path fill="#C0C0C0" stroke="none" d="M 759 984 C 759 974.6111584 806.2339536 967 864.5 967 C 922.7660464 967 970 974.6111584 970 984 C 970 993.3888416 922.7660464 1001 864.5 1001 C 806.2339536 1001 759 993.3888416 759 984 Z" opacity="0.2"/></g><g transform="translate(-70,-94) scale(1,1)"><path fill="#ffffff" stroke="none" d="M 752 977 C 752 967.6111584 799.2339536 960 857.5 960 C 915.7660464 960 963 967.6111584 963 977 C 963 986.3888416 915.7660464 994 857.5 994 C 799.2339536 994 752 986.3888416 752 977 Z"/></g><g transform="translate(-70,-94) scale(1,1)"><path fill="none" stroke="#000000" d="M 752 977 C 752 967.6111584 799.2339536 960 857.5 960 C 915.7660464 960 963 967.6111584 963 977 C 963 986.3888416 915.7660464 994 857.5 994 C 799.2339536 994 752 986.3888416 752 977 Z" stroke-miterlimit="10"/></g><g transform="translate(-70,-94) scale(1,1)"><g><path fill="none" stroke="none"/><text fill="#000000" stroke="none" font-family="Arial" font-size="13px" font-style="normal" font-weight="bold" text-decoration="none" x="796.5" y="984">Write self description</text></g></g><g transform="translate(-70,-94) scale(1,1)"><path fill="#C0C0C0" stroke="none" d="M 1119 912 C 1119 902.6111584 1166.4578112 895 1225 895 C 1283.5421888 895 1331 902.6111584 1331 912 C 1331 921.3888416 1283.5421888 929 1225 929 C 1166.4578112 929 1119 921.3888416 1119 912 Z" opacity="0.2"/></g><g transform="translate(-70,-94) scale(1,1)"><path fill="#ffffff" stroke="none" d="M 1112 905 C 1112 895.6111584 1159.4578112 888 1218 888 C 1276.5421888 888 1324 895.6111584 1324 905 C 1324 914.3888416 1276.5421888 922 1218 922 C 1159.4578112 922 1112 914.3888416 1112 905 Z"/></g><g transform="translate(-70,-94) scale(1,1)"><path fill="none" stroke="#000000" d="M 1112 905 C 1112 895.6111584 1159.4578112 888 1218 888 C 1276.5421888 888 1324 895.6111584 1324 905 C 1324 914.3888416 1276.5421888 922 1218 922 C 1159.4578112 922 1112 914.3888416 1112 905 Z" stroke-miterlimit="10"/></g><g transform="translate(-70,-94) scale(1,1)"><g><path fill="none" stroke="none"/><text fill="#000000" stroke="none" font-family="Arial" font-size="13px" font-style="normal" font-weight="bold" text-decoration="none" x="1154.5" y="912">List dishes capable of</text></g></g><g transform="translate(-70,-94) scale(1,1)"><path fill="#C0C0C0" stroke="none" d="M 1135 808 C 1135 798.6111584 1178.2045168 791 1231.5 791 C 1284.7954832 791 1328 798.6111584 1328 808 C 1328 817.3888416 1284.7954832 825 1231.5 825 C 1178.2045168 825 1135 817.3888416 1135 808 Z" opacity="0.2"/></g><g transform="translate(-70,-94) scale(1,1)"><path fill="#ffffff" stroke="none" d="M 1128 801 C 1128 791.6111584 1171.2045168 784 1224.5 784 C 1277.7954832 784 1321 791.6111584 1321 801 C 1321 810.3888416 1277.7954832 818 1224.5 818 C 1171.2045168 818 1128 810.3888416 1128 801 Z"/></g><g transform="translate(-70,-94) scale(1,1)"><path fill="none" stroke="#000000" d="M 1128 801 C 1128 791.6111584 1171.2045168 784 1224.5 784 C 1277.7954832 784 1321 791.6111584 1321 801 C 1321 810.3888416 1277.7954832 818 1224.5 818 C 1171.2045168 818 1128 810.3888416 1128 801 Z" stroke-miterlimit="10"/></g><g transform="translate(-70,-94) scale(1,1)"><g><path fill="none" stroke="none"/><text fill="#000000" stroke="none" font-family="Arial" font-size="13px" font-style="normal" font-weight="bold" text-decoration="none" x="1166.5" y="808">Choose Menu types</text></g></g><g transform="translate(-70,-94) scale(1,1)"><path fill="#C0C0C0" stroke="none" d="M 567 984 C 567 974.6111584 598.7877792 967 638 967 C 677.2122208 967 709 974.6111584 709 984 C 709 993.3888416 677.2122208 1001 638 1001 C 598.7877792 1001 567 993.3888416 567 984 Z" opacity="0.2"/></g><g transform="translate(-70,-94) scale(1,1)"><path fill="#ffffff" stroke="none" d="M 560 977 C 560 967.6111584 591.7877792 960 631 960 C 670.2122208 960 702 967.6111584 702 977 C 702 986.3888416 670.2122208 994 631 994 C 591.7877792 994 560 986.3888416 560 977 Z"/></g><g transform="translate(-70,-94) scale(1,1)"><path fill="none" stroke="#000000" d="M 560 977 C 560 967.6111584 591.7877792 960 631 960 C 670.2122208 960 702 967.6111584 702 977 C 702 986.3888416 670.2122208 994 631 994 C 591.7877792 994 560 986.3888416 560 977 Z" stroke-miterlimit="10"/></g><g transform="translate(-70,-94) scale(1,1)"><g><path fill="none" stroke="none"/><text fill="#000000" stroke="none" font-family="Arial" font-size="13px" font-style="normal" font-weight="bold" text-decoration="none" x="590.5" y="984">List Language</text></g></g><g transform="translate(-70,-94) scale(1,1)"><path fill="#C0C0C0" stroke="none" d="M 1191 984 C 1191 974.6111584 1215.4004783999999 967 1245.5 967 C 1275.5995216000001 967 1300 974.6111584 1300 984 C 1300 993.3888416 1275.5995216000001 1001 1245.5 1001 C 1215.4004783999999 1001 1191 993.3888416 1191 984 Z" opacity="0.2"/></g><g transform="translate(-70,-94) scale(1,1)"><path fill="#ffffff" stroke="none" d="M 1184 977 C 1184 967.6111584 1208.4004783999999 960 1238.5 960 C 1268.5995216000001 960 1293 967.6111584 1293 977 C 1293 986.3888416 1268.5995216000001 994 1238.5 994 C 1208.4004783999999 994 1184 986.3888416 1184 977 Z"/></g><g transform="translate(-70,-94) scale(1,1)"><path fill="none" stroke="#000000" d="M 1184 977 C 1184 967.6111584 1208.4004783999999 960 1238.5 960 C 1268.5995216000001 960 1293 967.6111584 1293 977 C 1293 986.3888416 1268.5995216000001 994 1238.5 994 C 1208.4004783999999 994 1184 986.3888416 1184 977 Z" stroke-miterlimit="10"/></g><g transform="translate(-70,-94) scale(1,1)"><g><path fill="none" stroke="none"/><text fill="#000000" stroke="none" font-family="Arial" font-size="13px" font-style="normal" font-weight="bold" text-decoration="none" x="1209" y="984">Age range</text></g></g><g transform="translate(-70,-94) scale(1,1)"><path fill="#C0C0C0" stroke="none" d="M 1151 864 C 1151 854.6111584 1183.0116368 847 1222.5 847 C 1261.9883632 847 1294 854.6111584 1294 864 C 1294 873.3888416 1261.9883632 881 1222.5 881 C 1183.0116368 881 1151 873.3888416 1151 864 Z" opacity="0.2"/></g><g transform="translate(-70,-94) scale(1,1)"><path fill="#ffffff" stroke="none" d="M 1144 857 C 1144 847.6111584 1176.0116368 840 1215.5 840 C 1254.9883632 840 1287 847.6111584 1287 857 C 1287 866.3888416 1254.9883632 874 1215.5 874 C 1176.0116368 874 1144 866.3888416 1144 857 Z"/></g><g transform="translate(-70,-94) scale(1,1)"><path fill="none" stroke="#000000" d="M 1144 857 C 1144 847.6111584 1176.0116368 840 1215.5 840 C 1254.9883632 840 1287 847.6111584 1287 857 C 1287 866.3888416 1254.9883632 874 1215.5 874 C 1176.0116368 874 1144 866.3888416 1144 857 Z" stroke-miterlimit="10"/></g><g transform="translate(-70,-94) scale(1,1)"><g><path fill="none" stroke="none"/><text fill="#000000" stroke="none" font-family="Arial" font-size="13px" font-style="normal" font-weight="bold" text-decoration="none" x="1174" y="864">Email address</text></g></g><g transform="translate(-70,-94) scale(1,1)"><path fill="none" stroke="#000000" d="M 314 736 L 1167 722" stroke-miterlimit="10" stroke-dasharray="3"/></g><g transform="translate(-70,-94) scale(1,1)"><path fill="none" stroke="#000000" d="M 1156.9077737385578 726.3757249785441 L 1167 722 L 1156.7696135683293 717.957823178201" stroke-miterlimit="10"/></g><g transform="translate(-70,-94) scale(1,1)"><g><path fill="none" stroke="none"/><text fill="#000000" stroke="none" font-family="Arial" font-size="13px" font-style="normal" font-weight="normal" text-decoration="none" x="712" y="706">«include»</text></g></g><g transform="translate(-70,-94) scale(1,1)"><path fill="none" stroke="#000000" d="M 314 746 L 1116 887" stroke-miterlimit="10" stroke-dasharray="3"/></g><g transform="translate(-70,-94) scale(1,1)"><path fill="none" stroke="#000000" d="M 1105.2619380120796 889.3862155693857 L 1116 887 L 1106.7197343410544 881.0943527620256" stroke-miterlimit="10"/></g><g transform="translate(-70,-94) scale(1,1)"><g><path fill="none" stroke="none"/><text fill="#000000" stroke="none" font-family="Arial" font-size="13px" font-style="normal" font-weight="normal" text-decoration="none" x="693" y="793">«include»</text></g></g><g transform="translate(-70,-94) scale(1,1)"><path fill="none" stroke="#000000" d="M 314 740 L 1127 795" stroke-miterlimit="10" stroke-dasharray="3"/></g><g transform="translate(-70,-94) scale(1,1)"><path fill="none" stroke="#000000" d="M 1116.5763736471279 798.5139740545012 L 1127 795 L 1117.144628238478 790.1141380041806" stroke-miterlimit="10"/></g><g transform="translate(-70,-94) scale(1,1)"><g><path fill="none" stroke="none"/><text fill="#000000" stroke="none" font-family="Arial" font-size="13px" font-style="normal" font-weight="normal" text-decoration="none" x="693" y="754">«include»</text></g></g><g transform="translate(-70,-94) scale(1,1)"><path fill="none" stroke="#000000" d="M 292 755 L 603 959" stroke-miterlimit="10" stroke-dasharray="3"/></g><g transform="translate(-70,-94) scale(1,1)"><path fill="none" stroke="#000000" d="M 592.1935047599334 956.9458187454809 L 603 959 L 596.8111794297455 949.906128440032" stroke-miterlimit="10"/></g><g transform="translate(-70,-94) scale(1,1)"><g><path fill="none" stroke="none"/><text fill="#000000" stroke="none" font-family="Arial" font-size="13px" font-style="normal" font-weight="normal" text-decoration="none" x="436" y="838">«include»</text></g></g><g transform="translate(-70,-94) scale(1,1)"><path fill="none" stroke="#000000" d="M 314 749 L 1183 963" stroke-miterlimit="10" stroke-dasharray="3"/></g><g transform="translate(-70,-94) scale(1,1)"><path fill="none" stroke="#000000" d="M 1172.125570540058 964.6573424271252 L 1183 963 L 1174.138699118372 956.4825352563088" stroke-miterlimit="10"/></g><g transform="translate(-70,-94) scale(1,1)"><g><path fill="none" stroke="none"/><text fill="#000000" stroke="none" font-family="Arial" font-size="13px" font-style="normal" font-weight="normal" text-decoration="none" x="728" y="833">«include»</text></g></g><g transform="translate(-70,-94) scale(1,1)"><path fill="none" stroke="#000000" d="M 314 752 L 1001 959" stroke-miterlimit="10" stroke-dasharray="3"/></g><g transform="translate(-70,-94) scale(1,1)"><path fill="none" stroke="#000000" d="M 990.0549990469008 960.098614644294 L 1001 959 L 992.4838777410791 952.0375534708614" stroke-miterlimit="10"/></g><g transform="translate(-70,-94) scale(1,1)"><g><path fill="none" stroke="none"/><text fill="#000000" stroke="none" font-family="Arial" font-size="13px" font-style="normal" font-weight="normal" text-decoration="none" x="638" y="833">«include»</text></g></g><g transform="translate(-70,-94) scale(1,1)"><path fill="none" stroke="#000000" d="M 308 755 L 813 959" stroke-miterlimit="10" stroke-dasharray="3"/></g><g transform="translate(-70,-94) scale(1,1)"><path fill="none" stroke="#000000" d="M 802.0004242963959 959.0966143916888 L 813 959 L 805.1538087382834 951.2904421213301" stroke-miterlimit="10"/></g><g transform="translate(-70,-94) scale(1,1)"><g><path fill="none" stroke="none"/><text fill="#000000" stroke="none" font-family="Arial" font-size="13px" font-style="normal" font-weight="normal" text-decoration="none" x="544" y="836">«include»</text></g></g><g transform="translate(-70,-94) scale(1,1)"><path fill="none" stroke="#000000" d="M 314 743 L 1143 848" stroke-miterlimit="10" stroke-dasharray="3"/></g><g transform="translate(-70,-94) scale(1,1)"><path fill="none" stroke="#000000" d="M 1132.3889283329524 850.8991650654596 L 1143 848 L 1133.4468199910086 842.5468585461399" stroke-miterlimit="10"/></g><g transform="translate(-70,-94) scale(1,1)"><g><path fill="none" stroke="none"/><text fill="#000000" stroke="none" font-family="Arial" font-size="13px" font-style="normal" font-weight="normal" text-decoration="none" x="704" y="772">«include»</text></g></g><g transform="translate(-70,-94) scale(1,1)"><path fill="#ffffff" stroke="none" d="M 119.82072727272728 1297.6799999999998 C 119.82072727272728 1292.8861679359998 123.70656959767274 1289 128.5 1289 C 133.29343040232726 1289 137.17927272727272 1292.8861679359998 137.17927272727272 1297.6799999999998 C 137.17927272727272 1302.473832064 133.29343040232726 1306.36 128.5 1306.36 C 123.70656959767274 1306.36 119.82072727272728 1302.473832064 119.82072727272728 1297.6799999999998 Z"/></g><g transform="translate(-70,-94) scale(1,1)"><path fill="none" stroke="#000000" d="M 119.82072727272728 1297.6799999999998 C 119.82072727272728 1292.8861679359998 123.70656959767274 1289 128.5 1289 C 133.29343040232726 1289 137.17927272727272 1292.8861679359998 137.17927272727272 1297.6799999999998 C 137.17927272727272 1302.473832064 133.29343040232726 1306.36 128.5 1306.36 C 123.70656959767274 1306.36 119.82072727272728 1302.473832064 119.82072727272728 1297.6799999999998 Z" stroke-miterlimit="10"/></g><g transform="translate(-70,-94) scale(1,1)"><path fill="none" stroke="#000000" d="M 128.5 1306.36 L 128.5 1323.64" stroke-miterlimit="10"/></g><g transform="translate(-70,-94) scale(1,1)"><path fill="none" stroke="#000000" d="M 119.31018181818183 1312.84 L 137.68981818181817 1312.84" stroke-miterlimit="10"/></g><g transform="translate(-70,-94) scale(1,1)"><path fill="none" stroke="#000000" d="M 128.5 1323.64 L 115.73636363636365 1341" stroke-miterlimit="10"/></g><g transform="translate(-70,-94) scale(1,1)"><path fill="none" stroke="#000000" d="M 128.5 1323.64 L 141.26363636363635 1341" stroke-miterlimit="10"/></g><g transform="translate(-70,-94) scale(1,1)"><g><path fill="none" stroke="none"/><text fill="#000000" stroke="none" font-family="Arial" font-size="13px" font-style="normal" font-weight="bold" text-decoration="none" x="115" y="1361.5">User</text></g></g><g transform="translate(-70,-94) scale(1,1)"><path fill="#C0C0C0" stroke="none" d="M 303 1200 C 303 1190.6111584 324.71418719999997 1183 351.5 1183 C 378.28581280000003 1183 400 1190.6111584 400 1200 C 400 1209.3888416 378.28581280000003 1217 351.5 1217 C 324.71418719999997 1217 303 1209.3888416 303 1200 Z" opacity="0.2"/></g><g transform="translate(-70,-94) scale(1,1)"><path fill="#ffffff" stroke="none" d="M 296 1193 C 296 1183.6111584 317.71418719999997 1176 344.5 1176 C 371.28581280000003 1176 393 1183.6111584 393 1193 C 393 1202.3888416 371.28581280000003 1210 344.5 1210 C 317.71418719999997 1210 296 1202.3888416 296 1193 Z"/></g><g transform="translate(-70,-94) scale(1,1)"><path fill="none" stroke="#000000" d="M 296 1193 C 296 1183.6111584 317.71418719999997 1176 344.5 1176 C 371.28581280000003 1176 393 1183.6111584 393 1193 C 393 1202.3888416 371.28581280000003 1210 344.5 1210 C 317.71418719999997 1210 296 1202.3888416 296 1193 Z" stroke-miterlimit="10"/></g><g transform="translate(-70,-94) scale(1,1)"><g><path fill="none" stroke="none"/><text fill="#000000" stroke="none" font-family="Arial" font-size="13px" font-style="normal" font-weight="bold" text-decoration="none" x="320.5" y="1200">Register</text></g></g><g transform="translate(-70,-94) scale(1,1)"><path fill="#C0C0C0" stroke="none" d="M 239 1368 C 239 1358.6111584 271.90706720000003 1351 312.5 1351 C 353.09293279999997 1351 386 1358.6111584 386 1368 C 386 1377.3888416 353.09293279999997 1385 312.5 1385 C 271.90706720000003 1385 239 1377.3888416 239 1368 Z" opacity="0.2"/></g><g transform="translate(-70,-94) scale(1,1)"><path fill="#ffffff" stroke="none" d="M 232 1361 C 232 1351.6111584 264.90706720000003 1344 305.5 1344 C 346.09293279999997 1344 379 1351.6111584 379 1361 C 379 1370.3888416 346.09293279999997 1378 305.5 1378 C 264.90706720000003 1378 232 1370.3888416 232 1361 Z"/></g><g transform="translate(-70,-94) scale(1,1)"><path fill="none" stroke="#000000" d="M 232 1361 C 232 1351.6111584 264.90706720000003 1344 305.5 1344 C 346.09293279999997 1344 379 1351.6111584 379 1361 C 379 1370.3888416 346.09293279999997 1378 305.5 1378 C 264.90706720000003 1378 232 1370.3888416 232 1361 Z" stroke-miterlimit="10"/></g><g transform="translate(-70,-94) scale(1,1)"><g><path fill="none" stroke="none"/><text fill="#000000" stroke="none" font-family="Arial" font-size="13px" font-style="normal" font-weight="bold" text-decoration="none" x="262.5" y="1368">Browse events</text></g></g><g transform="translate(-70,-94) scale(1,1)"><path fill="#C0C0C0" stroke="none" d="M 239 1320 C 239 1310.6111584 271.2354944 1303 311 1303 C 350.7645056 1303 383 1310.6111584 383 1320 C 383 1329.3888416 350.7645056 1337 311 1337 C 271.2354944 1337 239 1329.3888416 239 1320 Z" opacity="0.2"/></g><g transform="translate(-70,-94) scale(1,1)"><path fill="#ffffff" stroke="none" d="M 232 1313 C 232 1303.6111584 264.2354944 1296 304 1296 C 343.7645056 1296 376 1303.6111584 376 1313 C 376 1322.3888416 343.7645056 1330 304 1330 C 264.2354944 1330 232 1322.3888416 232 1313 Z"/></g><g transform="translate(-70,-94) scale(1,1)"><path fill="none" stroke="#000000" d="M 232 1313 C 232 1303.6111584 264.2354944 1296 304 1296 C 343.7645056 1296 376 1303.6111584 376 1313 C 376 1322.3888416 343.7645056 1330 304 1330 C 264.2354944 1330 232 1322.3888416 232 1313 Z" stroke-miterlimit="10"/></g><g transform="translate(-70,-94) scale(1,1)"><g><path fill="none" stroke="none"/><text fill="#000000" stroke="none" font-family="Arial" font-size="13px" font-style="normal" font-weight="bold" text-decoration="none" x="267.5" y="1320">Book events</text></g></g><g transform="translate(-70,-94) scale(1,1)"><path fill="#C0C0C0" stroke="none" d="M 239 1424 C 239 1414.6111584 270.5639216 1407 309.5 1407 C 348.4360784 1407 380 1414.6111584 380 1424 C 380 1433.3888416 348.4360784 1441 309.5 1441 C 270.5639216 1441 239 1433.3888416 239 1424 Z" opacity="0.2"/></g><g transform="translate(-70,-94) scale(1,1)"><path fill="#ffffff" stroke="none" d="M 232 1417 C 232 1407.6111584 263.5639216 1400 302.5 1400 C 341.4360784 1400 373 1407.6111584 373 1417 C 373 1426.3888416 341.4360784 1434 302.5 1434 C 263.5639216 1434 232 1426.3888416 232 1417 Z"/></g><g transform="translate(-70,-94) scale(1,1)"><path fill="none" stroke="#000000" d="M 232 1417 C 232 1407.6111584 263.5639216 1400 302.5 1400 C 341.4360784 1400 373 1407.6111584 373 1417 C 373 1426.3888416 341.4360784 1434 302.5 1434 C 263.5639216 1434 232 1426.3888416 232 1417 Z" stroke-miterlimit="10"/></g><g transform="translate(-70,-94) scale(1,1)"><g><path fill="none" stroke="none"/><text fill="#000000" stroke="none" font-family="Arial" font-size="13px" font-style="normal" font-weight="bold" text-decoration="none" x="261" y="1424">Cancel events</text></g></g><g transform="translate(-70,-94) scale(1,1)"><path fill="#C0C0C0" stroke="none" d="M 223 1480 C 223 1470.6111584 259.4887888 1463 304.5 1463 C 349.5112112 1463 386 1470.6111584 386 1480 C 386 1489.3888416 349.5112112 1497 304.5 1497 C 259.4887888 1497 223 1489.3888416 223 1480 Z" opacity="0.2"/></g><g transform="translate(-70,-94) scale(1,1)"><path fill="#ffffff" stroke="none" d="M 216 1473 C 216 1463.6111584 252.4887888 1456 297.5 1456 C 342.5112112 1456 379 1463.6111584 379 1473 C 379 1482.3888416 342.5112112 1490 297.5 1490 C 252.4887888 1490 216 1482.3888416 216 1473 Z"/></g><g transform="translate(-70,-94) scale(1,1)"><path fill="none" stroke="#000000" d="M 216 1473 C 216 1463.6111584 252.4887888 1456 297.5 1456 C 342.5112112 1456 379 1463.6111584 379 1473 C 379 1482.3888416 342.5112112 1490 297.5 1490 C 252.4887888 1490 216 1482.3888416 216 1473 Z" stroke-miterlimit="10"/></g><g transform="translate(-70,-94) scale(1,1)"><g><path fill="none" stroke="none"/><text fill="#000000" stroke="none" font-family="Arial" font-size="13px" font-style="normal" font-weight="bold" text-decoration="none" x="249" y="1480">Make a payment</text></g></g><g transform="translate(-70,-94) scale(1,1)"><path fill="#C0C0C0" stroke="none" d="M 239 1528 C 239 1518.6111584 271.0116368 1511 310.5 1511 C 349.9883632 1511 382 1518.6111584 382 1528 C 382 1537.3888416 349.9883632 1545 310.5 1545 C 271.0116368 1545 239 1537.3888416 239 1528 Z" opacity="0.2"/></g><g transform="translate(-70,-94) scale(1,1)"><path fill="#ffffff" stroke="none" d="M 232 1521 C 232 1511.6111584 264.0116368 1504 303.5 1504 C 342.9883632 1504 375 1511.6111584 375 1521 C 375 1530.3888416 342.9883632 1538 303.5 1538 C 264.0116368 1538 232 1530.3888416 232 1521 Z"/></g><g transform="translate(-70,-94) scale(1,1)"><path fill="none" stroke="#000000" d="M 232 1521 C 232 1511.6111584 264.0116368 1504 303.5 1504 C 342.9883632 1504 375 1511.6111584 375 1521 C 375 1530.3888416 342.9883632 1538 303.5 1538 C 264.0116368 1538 232 1530.3888416 232 1521 Z" stroke-miterlimit="10"/></g><g transform="translate(-70,-94) scale(1,1)"><g><path fill="none" stroke="none"/><text fill="#000000" stroke="none" font-family="Arial" font-size="13px" font-style="normal" font-weight="bold" text-decoration="none" x="262.5" y="1528">Write a review</text></g></g><g transform="translate(-70,-94) scale(1,1)"><path fill="#C0C0C0" stroke="none" d="M 511 1296 C 511 1286.6111584 549.9512224 1279 598 1279 C 646.0487776 1279 685 1286.6111584 685 1296 C 685 1305.3888416 646.0487776 1313 598 1313 C 549.9512224 1313 511 1305.3888416 511 1296 Z" opacity="0.2"/></g><g transform="translate(-70,-94) scale(1,1)"><path fill="#ffffff" stroke="none" d="M 504 1289 C 504 1279.6111584 542.9512224 1272 591 1272 C 639.0487776 1272 678 1279.6111584 678 1289 C 678 1298.3888416 639.0487776 1306 591 1306 C 542.9512224 1306 504 1298.3888416 504 1289 Z"/></g><g transform="translate(-70,-94) scale(1,1)"><path fill="none" stroke="#000000" d="M 504 1289 C 504 1279.6111584 542.9512224 1272 591 1272 C 639.0487776 1272 678 1279.6111584 678 1289 C 678 1298.3888416 639.0487776 1306 591 1306 C 542.9512224 1306 504 1298.3888416 504 1289 Z" stroke-miterlimit="10"/></g><g transform="translate(-70,-94) scale(1,1)"><g><path fill="none" stroke="none"/><text fill="#000000" stroke="none" font-family="Arial" font-size="13px" font-style="normal" font-weight="bold" text-decoration="none" x="540.5" y="1296">Browse by author</text></g></g><g transform="translate(-70,-94) scale(1,1)"><path fill="#C0C0C0" stroke="none" d="M 527 1368 C 527 1358.6111584 561.4740704 1351 604 1351 C 646.5259296 1351 681 1358.6111584 681 1368 C 681 1377.3888416 646.5259296 1385 604 1385 C 561.4740704 1385 527 1377.3888416 527 1368 Z" opacity="0.2"/></g><g transform="translate(-70,-94) scale(1,1)"><path fill="#ffffff" stroke="none" d="M 520 1361 C 520 1351.6111584 554.4740704 1344 597 1344 C 639.5259296 1344 674 1351.6111584 674 1361 C 674 1370.3888416 639.5259296 1378 597 1378 C 554.4740704 1378 520 1370.3888416 520 1361 Z"/></g><g transform="translate(-70,-94) scale(1,1)"><path fill="none" stroke="#000000" d="M 520 1361 C 520 1351.6111584 554.4740704 1344 597 1344 C 639.5259296 1344 674 1351.6111584 674 1361 C 674 1370.3888416 639.5259296 1378 597 1378 C 554.4740704 1378 520 1370.3888416 520 1361 Z" stroke-miterlimit="10"/></g><g transform="translate(-70,-94) scale(1,1)"><g><path fill="none" stroke="none"/><text fill="#000000" stroke="none" font-family="Arial" font-size="13px" font-style="normal" font-weight="bold" text-decoration="none" x="552" y="1368">Browse by time</text></g></g><g transform="translate(-70,-94) scale(1,1)"><path fill="#C0C0C0" stroke="none" d="M 511 1416 C 511 1406.6111584 552.8613712 1399 604.5 1399 C 656.1386288 1399 698 1406.6111584 698 1416 C 698 1425.3888416 656.1386288 1433 604.5 1433 C 552.8613712 1433 511 1425.3888416 511 1416 Z" opacity="0.2"/></g><g transform="translate(-70,-94) scale(1,1)"><path fill="#ffffff" stroke="none" d="M 504 1409 C 504 1399.6111584 545.8613712 1392 597.5 1392 C 649.1386288 1392 691 1399.6111584 691 1409 C 691 1418.3888416 649.1386288 1426 597.5 1426 C 545.8613712 1426 504 1418.3888416 504 1409 Z"/></g><g transform="translate(-70,-94) scale(1,1)"><path fill="none" stroke="#000000" d="M 504 1409 C 504 1399.6111584 545.8613712 1392 597.5 1392 C 649.1386288 1392 691 1399.6111584 691 1409 C 691 1418.3888416 649.1386288 1426 597.5 1426 C 545.8613712 1426 504 1418.3888416 504 1409 Z" stroke-miterlimit="10"/></g><g transform="translate(-70,-94) scale(1,1)"><g><path fill="none" stroke="none"/><text fill="#000000" stroke="none" font-family="Arial" font-size="13px" font-style="normal" font-weight="bold" text-decoration="none" x="542" y="1416">Browse by address</text></g></g><g transform="translate(-70,-94) scale(1,1)"><path fill="#C0C0C0" stroke="none" d="M 527 1464 C 527 1454.6111584 562.5933583999999 1447 606.5 1447 C 650.4066416000001 1447 686 1454.6111584 686 1464 C 686 1473.3888416 650.4066416000001 1481 606.5 1481 C 562.5933583999999 1481 527 1473.3888416 527 1464 Z" opacity="0.2"/></g><g transform="translate(-70,-94) scale(1,1)"><path fill="#ffffff" stroke="none" d="M 520 1457 C 520 1447.6111584 555.5933583999999 1440 599.5 1440 C 643.4066416000001 1440 679 1447.6111584 679 1457 C 679 1466.3888416 643.4066416000001 1474 599.5 1474 C 555.5933583999999 1474 520 1466.3888416 520 1457 Z"/></g><g transform="translate(-70,-94) scale(1,1)"><path fill="none" stroke="#000000" d="M 520 1457 C 520 1447.6111584 555.5933583999999 1440 599.5 1440 C 643.4066416000001 1440 679 1447.6111584 679 1457 C 679 1466.3888416 643.4066416000001 1474 599.5 1474 C 555.5933583999999 1474 520 1466.3888416 520 1457 Z" stroke-miterlimit="10"/></g><g transform="translate(-70,-94) scale(1,1)"><g><path fill="none" stroke="none"/><text fill="#000000" stroke="none" font-family="Arial" font-size="13px" font-style="normal" font-weight="bold" text-decoration="none" x="553" y="1464">Browse by topic</text></g></g><g transform="translate(-70,-94) scale(1,1)"><path fill="none" stroke="#000000" d="M 520 1307 L 377 1343" stroke-miterlimit="10" stroke-dasharray="3"/></g><g transform="translate(-70,-94) scale(1,1)"><path fill="none" stroke="#000000" d="M 385.8275020405471 1336.436829445753 L 377 1343 L 387.882848958801 1344.6011241488168" stroke-miterlimit="10"/></g><g transform="translate(-70,-94) scale(1,1)"><g><path fill="none" stroke="none"/><text fill="#000000" stroke="none" font-family="Arial" font-size="13px" font-style="normal" font-weight="normal" text-decoration="none" x="429" y="1317">«extend»</text></g></g><g transform="translate(-70,-94) scale(1,1)"><path fill="none" stroke="#000000" d="M 519 1361 L 380 1361" stroke-miterlimit="10" stroke-dasharray="3"/></g><g transform="translate(-70,-94) scale(1,1)"><path fill="none" stroke="#000000" d="M 390.16267485762415 1356.7904822439841 L 380 1361 L 390.16267485762415 1365.2095177560159" stroke-miterlimit="10"/></g><g transform="translate(-70,-94) scale(1,1)"><g><path fill="none" stroke="none"/><text fill="#000000" stroke="none" font-family="Arial" font-size="13px" font-style="normal" font-weight="normal" text-decoration="none" x="435" y="1357">«extend»</text></g></g><g transform="translate(-70,-94) scale(1,1)"><path fill="none" stroke="#000000" d="M 503 1394 L 380 1373" stroke-miterlimit="10" stroke-dasharray="3"/></g><g transform="translate(-70,-94) scale(1,1)"><path fill="none" stroke="#000000" d="M 390.7261657365976 1370.560867246122 L 380 1373 L 389.3092718389603 1378.8598172179977" stroke-miterlimit="10"/></g><g transform="translate(-70,-94) scale(1,1)"><g><path fill="none" stroke="none"/><text fill="#000000" stroke="none" font-family="Arial" font-size="13px" font-style="normal" font-weight="normal" text-decoration="none" x="451" y="1381">«extend»</text></g></g><g transform="translate(-70,-94) scale(1,1)"><path fill="none" stroke="#000000" d="M 544 1439 L 360 1379" stroke-miterlimit="10" stroke-dasharray="3"/></g><g transform="translate(-70,-94) scale(1,1)"><path fill="none" stroke="#000000" d="M 370.96699545581043 1378.1485244147757 L 360 1379 L 368.3569210163725 1386.1527526957188" stroke-miterlimit="10"/></g><g transform="translate(-70,-94) scale(1,1)"><g><path fill="none" stroke="none"/><text fill="#000000" stroke="none" font-family="Arial" font-size="13px" font-style="normal" font-weight="normal" text-decoration="none" x="451" y="1413">«extend»</text></g></g><g transform="translate(-70,-94) scale(1,1)"><path fill="#C0C0C0" stroke="none" d="M 183 1200 C 183 1190.6111584 204.7141872 1183 231.5 1183 C 258.28581280000003 1183 280 1190.6111584 280 1200 C 280 1209.3888416 258.28581280000003 1217 231.5 1217 C 204.7141872 1217 183 1209.3888416 183 1200 Z" opacity="0.2"/></g><g transform="translate(-70,-94) scale(1,1)"><path fill="#ffffff" stroke="none" d="M 176 1193 C 176 1183.6111584 197.7141872 1176 224.5 1176 C 251.2858128 1176 273 1183.6111584 273 1193 C 273 1202.3888416 251.2858128 1210 224.5 1210 C 197.7141872 1210 176 1202.3888416 176 1193 Z"/></g><g transform="translate(-70,-94) scale(1,1)"><path fill="none" stroke="#000000" d="M 176 1193 C 176 1183.6111584 197.7141872 1176 224.5 1176 C 251.2858128 1176 273 1183.6111584 273 1193 C 273 1202.3888416 251.2858128 1210 224.5 1210 C 197.7141872 1210 176 1202.3888416 176 1193 Z" stroke-miterlimit="10"/></g><g transform="translate(-70,-94) scale(1,1)"><g><path fill="none" stroke="none"/><text fill="#000000" stroke="none" font-family="Arial" font-size="13px" font-style="normal" font-weight="bold" text-decoration="none" x="200.5" y="1200">Edit info</text></g></g><g transform="translate(-70,-94) scale(1,1)"><path fill="none" stroke="#000000" d="M 128 1287 L 128 1155" stroke-miterlimit="10"/></g><g transform="translate(-70,-94) scale(1,1)"><path fill="none" stroke="#000000" d="M 154 1291 L 211 1211" stroke-miterlimit="10"/></g><g transform="translate(-70,-94) scale(1,1)"><path fill="none" stroke="#000000" d="M 154 1311 L 315 1211" stroke-miterlimit="10"/></g><g transform="translate(-70,-94) scale(1,1)"><path fill="none" stroke="#000000" d="M 154 1325 L 231 1319" stroke-miterlimit="10"/></g><g transform="translate(-70,-94) scale(1,1)"><path fill="none" stroke="#000000" d="M 154 1332 L 231 1347" stroke-miterlimit="10"/></g><g transform="translate(-70,-94) scale(1,1)"><path fill="none" stroke="#000000" d="M 154 1340 L 267 1399" stroke-miterlimit="10"/></g><g transform="translate(-70,-94) scale(1,1)"><path fill="none" stroke="#000000" d="M 154 1349 L 276 1455" stroke-miterlimit="10"/></g><g transform="translate(-70,-94) scale(1,1)"><path fill="none" stroke="#000000" d="M 154 1356 L 287 1503" stroke-miterlimit="10"/></g><g transform="translate(-70,-94) scale(1,1)"><path fill="#C0C0C0" stroke="none" d="M 487 1088 C 487 1078.6111584 518.7877792 1071 558 1071 C 597.2122208 1071 629 1078.6111584 629 1088 C 629 1097.3888416 597.2122208 1105 558 1105 C 518.7877792 1105 487 1097.3888416 487 1088 Z" opacity="0.2"/></g><g transform="translate(-70,-94) scale(1,1)"><path fill="#ffffff" stroke="none" d="M 480 1081 C 480 1071.6111584 511.7877792 1064 551 1064 C 590.2122208 1064 622 1071.6111584 622 1081 C 622 1090.3888416 590.2122208 1098 551 1098 C 511.7877792 1098 480 1090.3888416 480 1081 Z"/></g><g transform="translate(-70,-94) scale(1,1)"><path fill="none" stroke="#000000" d="M 480 1081 C 480 1071.6111584 511.7877792 1064 551 1064 C 590.2122208 1064 622 1071.6111584 622 1081 C 622 1090.3888416 590.2122208 1098 551 1098 C 511.7877792 1098 480 1090.3888416 480 1081 Z" stroke-miterlimit="10"/></g><g transform="translate(-70,-94) scale(1,1)"><g><path fill="none" stroke="none"/><text fill="#000000" stroke="none" font-family="Arial" font-size="13px" font-style="normal" font-weight="bold" text-decoration="none" x="510.5" y="1088">List Language</text></g></g><g transform="translate(-70,-94) scale(1,1)"><path fill="#C0C0C0" stroke="none" d="M 495 1136 C 495 1126.6111584 527.0116368 1119 566.5 1119 C 605.9883632 1119 638 1126.6111584 638 1136 C 638 1145.3888416 605.9883632 1153 566.5 1153 C 527.0116368 1153 495 1145.3888416 495 1136 Z" opacity="0.2"/></g><g transform="translate(-70,-94) scale(1,1)"><path fill="#ffffff" stroke="none" d="M 488 1129 C 488 1119.6111584 520.0116368 1112 559.5 1112 C 598.9883632 1112 631 1119.6111584 631 1129 C 631 1138.3888416 598.9883632 1146 559.5 1146 C 520.0116368 1146 488 1138.3888416 488 1129 Z"/></g><g transform="translate(-70,-94) scale(1,1)"><path fill="none" stroke="#000000" d="M 488 1129 C 488 1119.6111584 520.0116368 1112 559.5 1112 C 598.9883632 1112 631 1119.6111584 631 1129 C 631 1138.3888416 598.9883632 1146 559.5 1146 C 520.0116368 1146 488 1138.3888416 488 1129 Z" stroke-miterlimit="10"/></g><g transform="translate(-70,-94) scale(1,1)"><g><path fill="none" stroke="none"/><text fill="#000000" stroke="none" font-family="Arial" font-size="13px" font-style="normal" font-weight="bold" text-decoration="none" x="518" y="1136">Email address</text></g></g><g transform="translate(-70,-94) scale(1,1)"><path fill="#C0C0C0" stroke="none" d="M 527 1240 C 527 1230.6111584 568.6375136 1223 620 1223 C 671.3624864 1223 713 1230.6111584 713 1240 C 713 1249.3888416 671.3624864 1257 620 1257 C 568.6375136 1257 527 1249.3888416 527 1240 Z" opacity="0.2"/></g><g transform="translate(-70,-94) scale(1,1)"><path fill="#ffffff" stroke="none" d="M 520 1233 C 520 1223.6111584 561.6375136 1216 613 1216 C 664.3624864 1216 706 1223.6111584 706 1233 C 706 1242.3888416 664.3624864 1250 613 1250 C 561.6375136 1250 520 1242.3888416 520 1233 Z"/></g><g transform="translate(-70,-94) scale(1,1)"><path fill="none" stroke="#000000" d="M 520 1233 C 520 1223.6111584 561.6375136 1216 613 1216 C 664.3624864 1216 706 1223.6111584 706 1233 C 706 1242.3888416 664.3624864 1250 613 1250 C 561.6375136 1250 520 1242.3888416 520 1233 Z" stroke-miterlimit="10"/></g><g transform="translate(-70,-94) scale(1,1)"><g><path fill="none" stroke="none"/><text fill="#000000" stroke="none" font-family="Arial" font-size="13px" font-style="normal" font-weight="bold" text-decoration="none" x="558.5" y="1240">List Phone number</text></g></g><g transform="translate(-70,-94) scale(1,1)"><path fill="none" stroke="#000000" d="M 377 1175 L 518 1099" stroke-miterlimit="10"/></g><g transform="translate(-70,-94) scale(1,1)"><path fill="none" stroke="#000000" d="M 394 1178 L 499 1147" stroke-miterlimit="10"/></g></g></svg>